<svg id="amex-svgrepo-com" xmlns="http://www.w3.org/2000/svg" width="26" height="17" viewBox="0 0 26 17">
  <path id="Path_7" data-name="Path 7" d="M1.625,3155.648h22.75A1.557,1.557,0,0,1,26,3157.123v14.044a1.557,1.557,0,0,1-1.625,1.478H1.625A1.557,1.557,0,0,1,0,3171.167v-14.044a1.557,1.557,0,0,1,1.625-1.475Z" transform="translate(0 -3155.646)" fill="#26a6d1"/>
  <path id="Path_8" data-name="Path 8" d="M1405.369,8766.616l-2.6,5.174h3.113l.386-.825h.882l.386.825h3.427v-.63l.3.63h1.773l.305-.643v.643h7.127l.867-.8.811.8,3.661.007-2.609-2.579,2.609-2.6h-3.6l-.844.789-.786-.789h-7.757l-.666,1.335-.681-1.335h-3.107v.608l-.346-.608Zm.6.735h1.518l1.725,3.5v-3.5h1.662l1.332,2.515,1.227-2.515h1.654v3.712h-1l-.008-2.909-1.467,2.909h-.9l-1.476-2.911v2.907h-2.071l-.393-.831h-2.121l-.392.831h-1.109Zm10.04,0h4.093l1.252,1.214,1.292-1.214h1.252l-1.9,1.865,1.9,1.845h-1.307l-1.252-1.229-1.3,1.229h-4.028v-3.71Zm-9.3.628-.7,1.481h1.4Zm10.313.14v.678h2.233v.755h-2.233v.74h2.5l1.164-1.09-1.114-1.084h-2.55Z" transform="translate(-1401.29 -8760.706)" fill="#fff"/>
</svg>
