<svg width="26" height="17" viewBox="0 0 26 17" fill="none" xmlns="http://www.w3.org/2000/svg">
<rect width="26" height="17" rx="2" fill="#7F97ED"/>
<g clip-path="url(#clip0_14489_13063)">
<path d="M14.4438 9.86426C14.1238 9.86426 13.8633 10.1246 13.8633 10.4447C13.8633 10.7649 14.1238 11.0254 14.4438 11.0254C14.764 11.0254 15.0243 10.7649 15.0243 10.4447C15.0242 10.1246 14.7639 9.86426 14.4438 9.86426Z" fill="white"/>
<path d="M11.5494 6.9707C11.2292 6.9707 10.9688 7.23117 10.9688 7.55133C10.9688 7.87133 11.2293 8.13172 11.5494 8.13172C11.8695 8.13172 12.1298 7.87133 12.1298 7.55133C12.1298 7.23117 11.8695 6.9707 11.5494 6.9707Z" fill="white"/>
<path d="M13 4C10.2429 4 8 6.24289 8 9C8 11.757 10.2429 14 13 14C15.7568 14 17.9995 11.757 17.9995 9C17.9995 6.24289 15.7568 4 13 4ZM11.5499 6.34555C12.2148 6.34555 12.7559 6.88648 12.7559 7.55164C12.7559 8.21648 12.2148 8.75758 11.5499 8.75758C10.8848 8.75758 10.3438 8.21648 10.3438 7.55164C10.3438 6.88648 10.8849 6.34555 11.5499 6.34555ZM11.1833 11.2587C11.1223 11.3198 11.0421 11.3505 10.9622 11.3505C10.8822 11.3505 10.8021 11.3198 10.741 11.2587C10.6189 11.1366 10.6189 10.9385 10.741 10.8166L14.8162 6.74117C14.9383 6.61906 15.1363 6.61906 15.2585 6.74117C15.3806 6.86328 15.3806 7.06141 15.2585 7.18344L11.1833 11.2587ZM14.4432 11.6506C13.7782 11.6506 13.2371 11.1096 13.2371 10.4445C13.2371 9.77969 13.7782 9.23859 14.4432 9.23859C15.1081 9.23859 15.6491 9.77969 15.6491 10.4445C15.6491 11.1096 15.108 11.6506 14.4432 11.6506Z" fill="white"/>
</g>
<defs>
<clipPath id="clip0_14489_13063">
<rect width="10" height="10" fill="white" transform="translate(8 4)"/>
</clipPath>
</defs>
</svg>
