<svg xmlns="http://www.w3.org/2000/svg" width="26" height="17" viewBox="0 0 26 17"><g id="Group_11" data-name="Group 11" transform="translate(-1440.195 -636.441)"><path id="Path_7" fill="#43b07f" d="M1.625,3155.648h22.75A1.557,1.557,0,0,1,26,3157.123v14.044a1.557,1.557,0,0,1-1.625,1.478H1.625A1.557,1.557,0,0,1,0,3171.167v-14.044a1.557,1.557,0,0,1,1.625-1.475Z" data-name="Path 7" transform="translate(1440.195 -2519.205)"/><path id="Path_21" fill="#fff" d="M22,20.407c.112-.11.223-.222.325-.343a5.038,5.038,0,0,0,.37-.484,4.057,4.057,0,0,0,.443-.923,3.811,3.811,0,0,0,.192-1.069,3.67,3.67,0,0,0-.052-.73,3.6,3.6,0,0,0-.364-1.079,4.413,4.413,0,0,0-.656-.951,5.863,5.863,0,0,0-.985-.868,6.523,6.523,0,0,0-1.4-.742c-.272-.1-.549-.2-.829-.275-.338-.089-.684-.154-1.028-.222-.158-.031-.317-.051-.478-.068-.136-.014-.271-.016-.427-.025.035.069-.037.149.075.178a6.739,6.739,0,0,1,.759.217,5.958,5.958,0,0,1,.881.418,3.755,3.755,0,0,1,1.056.9,3.322,3.322,0,0,1,.443.7,7.262,7.262,0,0,1,.286.735,3.4,3.4,0,0,1,.115.535,5.828,5.828,0,0,1,.081.664,6.57,6.57,0,0,1-.016.772,5.515,5.515,0,0,1-.1.711,4.069,4.069,0,0,1-.611,1.432,4.26,4.26,0,0,1-.765.856,4.149,4.149,0,0,1-.927.606,4.5,4.5,0,0,1-1.451.415,5.571,5.571,0,0,1-.809.019c-.282-.01-.567-.032-.847-.069a7.448,7.448,0,0,1-.871-.16,6.242,6.242,0,0,1-1.4-.518c-.275-.147-.549-.3-.809-.466a4,4,0,0,1-.83-.72,2.31,2.31,0,0,1-.561-1.026,1.136,1.136,0,0,1,.084-.777,2.092,2.092,0,0,1,.688-.746,4.969,4.969,0,0,1,.93-.509,7.044,7.044,0,0,1,1.458-.454c.334-.063.669-.128,1.007-.17.321-.039.645-.059.969-.069.265-.009.532.009.8.014.027,0,.056,0,.088,0v-3.5h-.517c-.009.005-.017.015-.026.016-.237.012-.472.022-.709.037-.13.008-.26.018-.389.037-.2.029-.4.062-.6.1-.266.052-.537.1-.8.17-.355.1-.708.215-1.051.351a6.932,6.932,0,0,0-.84.406,4.976,4.976,0,0,0-.9.652,4.657,4.657,0,0,0-.65.721,3.945,3.945,0,0,0-.525,1,2.936,2.936,0,0,0-.125.428c-.04.219-.058.442-.09.662a2.854,2.854,0,0,0,.044.916A3.593,3.593,0,0,0,9.9,18.9a4.028,4.028,0,0,0,.63,1.014,5.25,5.25,0,0,0,.567.582,6.52,6.52,0,0,0,.765.579,9.578,9.578,0,0,0,.878.479,4.6,4.6,0,0,0,.63.261c.313.1.633.192.953.271.278.068.561.121.844.163a7.617,7.617,0,0,0,.762.069c.241.012.484.012.726,0,.347-.015.694-.037,1.038-.069a5.762,5.762,0,0,0,.735-.108c.331-.074.655-.174.983-.263a5.68,5.68,0,0,0,1.04-.411c.261-.131.51-.287.759-.439A4.508,4.508,0,0,0,22,20.407Zm-5.293-4.084c-.187.024-.379.033-.562.074a3.349,3.349,0,0,0-.858.315,2.994,2.994,0,0,0-.943.767,2.285,2.285,0,0,0-.374.645,1.709,1.709,0,0,0-.136.581,4.168,4.168,0,0,0,.011.578,1.68,1.68,0,0,0,.193.561,2.308,2.308,0,0,0,.484.619,3.953,3.953,0,0,0,.51.375,3.2,3.2,0,0,0,.906.4c.182.047.363.094.548.134.1.023.212.029.326.043V16.3C16.771,16.311,16.739,16.32,16.706,16.323Z" data-name="Path 21" transform="translate(1436.735 627.479)"/></g></svg>