<svg xmlns="http://www.w3.org/2000/svg" width="26" height="17" viewBox="0 0 26 17"><g id="Group_12" data-name="Group 12" transform="translate(-265.293 -636.441)"><rect id="Rectangle_2" width="26" height="17" fill="#253b80" data-name="Rectangle 2" rx="1" transform="translate(265.293 636.441)"/><g id="Group_1" data-name="Group 1" transform="translate(267.565 642.083)"><path id="Path_1" fill="#fff" d="M316.369,721.467c-.091.6-.549.6-.991.6h-.252l.177-1.118a.139.139,0,0,1,.137-.117h.115c.3,0,.586,0,.733.172A.556.556,0,0,1,316.369,721.467Zm-.193-1.563h-1.669a.232.232,0,0,0-.229.2l-.675,4.279a.139.139,0,0,0,.138.16h.8a.232.232,0,0,0,.229-.2l.182-1.154a.232.232,0,0,1,.229-.2h.528a1.714,1.714,0,0,0,1.9-1.586,1.286,1.286,0,0,0-.213-1.077A1.548,1.548,0,0,0,316.177,719.9Z" data-name="Path 1" transform="translate(-313.602 -719.904)"/><path id="Path_2" fill="#fff" d="M356.1,737a.891.891,0,0,1-.9.763.619.619,0,0,1-.662-.777.9.9,0,0,1,.9-.769.674.674,0,0,1,.533.218A.692.692,0,0,1,356.1,737Zm1.114-1.555h-.8a.139.139,0,0,0-.137.117l-.035.223-.056-.081a1.138,1.138,0,0,0-.944-.335,1.838,1.838,0,0,0-1.784,1.607,1.508,1.508,0,0,0,.3,1.228,1.25,1.25,0,0,0,1.007.406,1.529,1.529,0,0,0,1.106-.458l-.036.222a.139.139,0,0,0,.137.161h.72a.232.232,0,0,0,.229-.2l.432-2.735A.139.139,0,0,0,357.215,735.441Z" data-name="Path 2" transform="translate(-349.652 -733.897)"/><path id="Path_3" fill="#fff" d="M402.565,736.157h-.8a.232.232,0,0,0-.192.1l-1.108,1.631-.469-1.568a.233.233,0,0,0-.223-.165h-.789a.139.139,0,0,0-.132.184l.884,2.6-.832,1.174a.139.139,0,0,0,.113.22h.8a.232.232,0,0,0,.191-.1l2.671-3.855A.139.139,0,0,0,402.565,736.157Z" data-name="Path 3" transform="translate(-390.746 -734.613)"/><path id="Path_4" fill="#fff" d="M441.7,721.467c-.091.6-.549.6-.991.6h-.252l.177-1.118a.139.139,0,0,1,.137-.117h.115c.3,0,.586,0,.732.172A.556.556,0,0,1,441.7,721.467ZM441.5,719.9h-1.669a.232.232,0,0,0-.229.2l-.675,4.279a.139.139,0,0,0,.137.16h.856a.162.162,0,0,0,.16-.137l.192-1.213a.232.232,0,0,1,.229-.2h.528a1.714,1.714,0,0,0,1.9-1.586,1.285,1.285,0,0,0-.213-1.077A1.547,1.547,0,0,0,441.5,719.9Z" data-name="Path 4" transform="translate(-427.027 -719.904)"/><path id="Path_5" fill="#fff" d="M481.436,737a.89.89,0,0,1-.9.763.619.619,0,0,1-.662-.777.9.9,0,0,1,.9-.769.674.674,0,0,1,.533.218A.688.688,0,0,1,481.436,737Zm1.114-1.555h-.8a.138.138,0,0,0-.137.117l-.035.223-.056-.081a1.137,1.137,0,0,0-.944-.335,1.837,1.837,0,0,0-1.784,1.607,1.509,1.509,0,0,0,.3,1.228,1.251,1.251,0,0,0,1.007.406,1.529,1.529,0,0,0,1.106-.458l-.036.222a.139.139,0,0,0,.138.161h.72a.232.232,0,0,0,.229-.2l.432-2.735A.139.139,0,0,0,482.55,735.441Z" data-name="Path 5" transform="translate(-463.085 -733.897)"/><path id="Path_6" fill="#fff" d="M521.933,720.02l-.685,4.357a.139.139,0,0,0,.137.16h.689a.231.231,0,0,0,.229-.2l.675-4.279a.139.139,0,0,0-.137-.161h-.771A.139.139,0,0,0,521.933,720.02Z" data-name="Path 6" transform="translate(-501.526 -719.902)"/></g></g></svg>